# xmcd
# 
# Track frame offsets:
#     150
#     13307
#     26105
#     40597
#     54277
#     68665
#     79880
#     94867
#     107455
#     122257
#     135687
#     147037
#     161287
#     172892
#     191752
#     206682
#     223195
#     239097
#     251747
#     266712
# 
# Disc length: 3748
# 
# Revision: 1
# Processed by: cddbd v1.5.2PL0 Copyright (c) Steve Scherf et al.
# Submitted via: fre:ac v1.0.17
# 
DISCID=1a0ea214
DTITLE=Duke Ellington - In The Beginning
DYEAR=2003
DGENRE=Jazz
TTITLE0=Take The "A" Train
TTITLE1=Main Stem
TTITLE2=It Don't Mean A Thing If Ain't Got That Swing
TTITLE3=Rendezvous With Rhythm
TTITLE4=Cotton Tail
TTITLE5=The Jeep Is Jumpin'
TTITLE6=In A Mellotone
TTITLE7=Slap Happy
TTITLE8=Jack The Bear
TTITLE9=Chasin' Chippies
TTITLE10=Raincheck
TTITLE11=Perdido
TTITLE12=Like A Ship In The Night
TTITLE13=Creole Love Call
TTITLE14=In A Sentimental Mood
TTITLE15=Sophisticated Lady
TTITLE16=All Too Soon
TTITLE17=Delta Mood
TTITLE18=I Got It Bad And That Ain't Good
TTITLE19=Solitude
EXTD=YEAR: 2003
EXTT0=
EXTT1=
EXTT2=
EXTT3=
EXTT4=
EXTT5=
EXTT6=
EXTT7=
EXTT8=
EXTT9=
EXTT10=
EXTT11=
EXTT12=
EXTT13=
EXTT14=
EXTT15=
EXTT16=
EXTT17=
EXTT18=
EXTT19=
PLAYORDER=
